<svg width="1173.404" height="681.417" xmlns="http://www.w3.org/2000/svg">

 <g>
  <title>background</title>
  <rect fill="none" id="canvas_background" height="402" width="582" y="-1" x="-1"/>
 </g>
 <g>
  <title>Layer 1</title>
  <g id="svg_1">
   <path fill="#ffffff" id="svg_2" d="m0.96,48.1c0.562,-0.5 1.457,-0.903 1.631,-1.514c1.209,-4.229 4.307,-6.581 7.976,-8.455c6.89,-3.521 14.179,-5.847 21.766,-7.244c6.774,-1.247 13.61,-2.004 20.506,-2.021c12.798,-0.033 25.597,0.002 38.395,-0.016c27.836,-0.039 55.672,-0.072 83.508,-0.16c5.758,-0.018 11.518,-0.193 17.272,-0.414c8.538,-0.327 16.928,0.823 25.235,2.561c11.969,2.503 21.029,9.098 26.711,19.997c7.168,13.753 14.34,27.506 20.496,41.76c27.995,64.826 62.507,126.015 102.838,183.943c6.305,9.056 12.775,17.999 19.283,26.912c2.449,3.354 5.151,6.532 7.857,9.689c6.037,7.042 13.484,12.218 21.861,16.083c3.07,1.417 6.303,2.228 9.735,2.284c5.656,0.091 10.345,-1.987 13.936,-6.268c1.625,-1.938 3.039,-4.145 4.119,-6.432c4.866,-10.303 8.755,-20.96 10.482,-32.275c0.988,-6.477 1.685,-13.001 2.416,-19.515c1.696,-15.106 2.797,-30.262 3.415,-45.447c0.768,-18.869 0.851,-37.745 -0.11,-56.612c-0.382,-7.507 -0.792,-15.017 -1.407,-22.507c-0.889,-10.835 -1.667,-21.693 -3.796,-32.38c-0.936,-4.701 -1.957,-9.397 -3.221,-14.018c-4.688,-17.132 -15.249,-29.243 -31.496,-36.411c-10.093,-4.453 -20.179,-8.919 -30.264,-13.391c-1.155,-0.512 -2.279,-1.093 -3.684,-1.771c0.373,-0.999 0.584,-1.899 1.017,-2.677c6.311,-11.355 15.274,-20.018 26.688,-26.178c8.367,-4.516 17.315,-7.448 26.517,-9.654c14.67,-3.517 29.579,-5.401 44.637,-5.844c36.467,-1.073 72.94,-1.076 109.411,-0.125c5.912,0.154 11.829,0.37 17.728,0.793c10.402,0.746 20.544,3.052 30.642,5.536c3.104,0.763 6.214,1.541 9.246,2.538c13.947,4.587 24.103,13.508 30.405,26.803c3.389,7.149 5.293,14.719 6.524,22.488c1.431,9.024 2.011,18.106 2.11,27.241c0.158,14.572 -0.81,29.099 -1.548,43.636c-0.414,8.147 -0.97,16.287 -1.41,24.432c-0.788,14.535 -1.565,29.07 -2.295,43.608c-0.969,19.331 -1.946,38.661 -2.8,57.997c-0.418,9.453 0.06,18.864 2.086,28.157c2.244,10.292 6.156,19.845 12.515,28.291c2.883,3.831 6.069,7.433 8.999,11.23c2.384,3.088 5.572,4.198 9.266,4.058c1.736,-0.066 3.493,-0.407 5.178,-0.858c6.591,-1.762 12.414,-5.039 17.752,-9.233c5.827,-4.579 10.836,-9.978 15.292,-15.849c9.572,-12.612 19.282,-25.136 28.423,-38.058c36.833,-52.066 66.719,-107.927 90.708,-166.992c5.112,-12.587 10.652,-25.002 16.063,-37.467c1.016,-2.339 2.234,-4.61 3.558,-6.792c8.157,-13.447 20.271,-21.021 35.627,-23.492c4.4,-0.708 8.911,-1.032 13.369,-1.017c11.196,0.037 22.391,0.416 33.587,0.569c14.716,0.201 29.434,0.395 44.15,0.451c27.837,0.104 55.675,0.019 83.511,0.198c11.193,0.072 22.402,0.414 33.532,1.743c5.385,0.644 10.817,1.38 16.04,2.78c13.035,3.492 20.269,12.111 19.943,27.254c-0.104,4.81 -1.049,9.529 -2.226,14.19c-4.209,16.667 -10.561,32.52 -18.278,47.844c-9.586,19.034 -20.827,37.081 -32.762,54.708c-14.988,22.137 -31.293,43.297 -47.847,64.269c-23.391,29.634 -46.59,59.415 -69.172,89.673c-6.543,8.768 -11.8,18.254 -16.103,28.281c-2.213,5.157 -3.753,10.513 -4.688,16.071c-1.911,11.359 0.232,21.937 5.747,31.93c3.664,6.64 8.376,12.492 13.787,17.754c11.471,11.151 22.957,22.288 34.583,33.276c18.954,17.916 37.737,35.997 55.529,55.085c23.385,25.088 45.025,51.556 63.947,80.207c6.649,10.068 12.089,20.689 15.95,32.126c1.188,3.517 1.902,7.088 2.025,10.797c0.265,8.018 -2.199,15.104 -7.173,21.354c-2.718,3.414 -5.995,6.199 -9.634,8.581c-9.964,6.523 -20.976,10.184 -32.72,11.563c-5.704,0.67 -11.482,1.012 -17.225,0.992c-19.037,-0.064 -38.072,-0.386 -57.108,-0.562c-15.677,-0.145 -31.356,-0.395 -47.031,-0.255c-7.664,0.067 -15.324,0.861 -22.979,1.425c-8.453,0.621 -16.892,1.467 -25.351,1.999c-5.632,0.354 -11.141,-0.812 -16.597,-2.119c-28.954,-6.941 -54.222,-20.825 -76.027,-40.946c-7.631,-7.041 -14.884,-14.541 -21.838,-22.255c-14.353,-15.921 -28.329,-32.18 -42.58,-48.193c-6.91,-7.766 -13.959,-15.419 -21.199,-22.875c-3.888,-4.004 -8.173,-7.661 -12.53,-11.16c-7.648,-6.141 -16.437,-9.796 -26.188,-11.045c-12.062,-1.545 -26.887,3.004 -33.571,19.211c-2.755,6.68 -4.371,13.71 -5.669,20.787c-2.914,15.896 -5.057,31.89 -6.02,48.043c-0.6,10.053 -1.427,20.11 -3.683,29.967c-0.712,3.108 -1.607,6.189 -2.643,9.207c-3.287,9.587 -9.678,16.395 -18.818,20.703c-6.269,2.954 -12.888,4.781 -19.645,6.105c-17.359,3.404 -34.894,4.394 -52.534,3.366c-11.495,-0.67 -22.989,-1.414 -34.462,-2.378c-38.056,-3.198 -75.458,-9.756 -111.643,-22.313c-42.154,-14.63 -80.241,-36.491 -114.699,-64.766c-16.603,-13.625 -32.083,-28.431 -46.536,-44.31c-32.244,-35.423 -61.824,-72.976 -89.43,-112.099c-31.659,-44.868 -60.491,-91.517 -87.569,-139.267c-33.865,-59.721 -64.49,-121.078 -92.712,-183.646c-6.876,-15.253 -11.322,-31.23 -13.784,-47.768c-0.4,-2.688 -0.729,-5.386 -1.099,-8.078c-0.157,-1.145 -0.444,-2.214 -1.726,-2.624c0,-1.6 0,-3.2 0,-4.8z" clip-rule="evenodd" fill-rule="evenodd"/>
  </g>
 </g>
</svg>